<svg width="29" height="28" viewBox="0 0 29 28" fill="none" xmlns="http://www.w3.org/2000/svg">
<path d="M5.93125 24.9435C6.46747 25.3542 7.12918 25.2173 7.90498 24.6583L13.8376 20.3001L19.7702 24.6583C20.546 25.2173 21.2191 25.3542 21.7554 24.9435C22.2802 24.5442 22.3943 23.8825 22.0862 22.9812L19.7474 16.0103L25.7371 11.7092C26.5015 11.1616 26.8323 10.5569 26.6155 9.918C26.3988 9.29051 25.7941 8.98247 24.8472 8.99388L17.4999 9.03951L15.2637 2.03446C14.9785 1.12175 14.5107 0.631171 13.8376 0.631171C13.1759 0.631171 12.7081 1.12175 12.4115 2.03446L10.1754 9.03951L2.82803 8.99388C1.8811 8.98247 1.28783 9.29051 1.07107 9.918C0.854297 10.5569 1.17375 11.1616 1.94955 11.7092L7.93921 16.0103L5.58898 22.9812C5.28094 23.8825 5.39503 24.5442 5.93125 24.9435Z" fill="#B14957"/>
<path d="M12.0955 18.5146H15.574C15.9948 18.5146 16.2686 18.2763 16.2686 17.8808C16.2686 17.4853 15.9897 17.247 15.574 17.247H12.8612V15.4013H15.4421C15.8275 15.4013 16.081 15.1782 16.081 14.8131C16.081 14.448 15.8224 14.2249 15.4421 14.2249H12.8612V12.4654H15.574C15.9897 12.4654 16.2686 12.2271 16.2686 11.8316C16.2686 11.4361 15.9948 11.1978 15.574 11.1978H12.0955C11.6138 11.1978 11.3299 11.4918 11.3299 11.9938V17.7135C11.3299 18.2206 11.6138 18.5146 12.0955 18.5146Z" fill="white"/>
</svg>
