<svg width="28" height="24" viewBox="0 0 28 24" fill="none" xmlns="http://www.w3.org/2000/svg">
<path d="M27.8618 7.78229L23.2867 0.43159C23.1195 0.163186 22.8258 0 22.5098 0H5.49034C5.17436 0 4.88063 0.163186 4.71345 0.43159L0.138333 7.78229C-0.0812901 8.13519 -0.0358452 8.5915 0.249348 8.89375L13.3342 22.7713C13.5071 22.9546 13.7481 23.0586 14 23.0586C14.252 23.0586 14.4929 22.9546 14.6658 22.771L27.7507 8.89375C28.0356 8.59117 28.0814 8.13519 27.8618 7.78229Z" fill="#594476"/>
<path d="M8.16406 13.3551C8.6836 13.3551 8.98985 13.0379 8.98985 12.4965V10.3527H10.3953L11.7078 12.7316C11.9758 13.2129 12.1563 13.3551 12.55 13.3551C13.0313 13.3551 13.3813 13.0379 13.3813 12.6004C13.3813 12.409 13.343 12.2668 13.2063 12.0316L12.0688 10.0629C12.9383 9.69102 13.425 8.84883 13.425 7.86445C13.425 6.30586 12.3859 5.34883 10.5703 5.34883H8.16406C7.64453 5.34883 7.33828 5.66602 7.33828 6.20742V12.4965C7.33828 13.0379 7.65 13.3551 8.16406 13.3551ZM8.98985 9.15508V6.63945H10.3953C11.2156 6.63945 11.7297 7.13164 11.7297 7.89727C11.7297 8.6793 11.243 9.15508 10.4117 9.15508H8.98985ZM18.0297 13.3715C19.5227 13.3715 20.6984 12.6988 21.1906 11.6051C21.2727 11.4137 21.3164 11.2387 21.3164 11.0527C21.3164 10.6152 21.0102 10.3199 20.5453 10.3199C20.1953 10.3199 19.9875 10.4676 19.818 10.8395C19.4625 11.6324 18.8391 12.0098 18.0078 12.0098C16.7445 12.0098 15.9516 10.9707 15.9516 9.28633C15.9516 7.62383 16.7555 6.5793 18.0023 6.5793C18.7898 6.5793 19.4352 6.98398 19.7961 7.78789C19.9766 8.1707 20.2117 8.33477 20.5836 8.33477C21.0211 8.33477 21.3109 8.05586 21.3109 7.62383C21.3109 7.42695 21.2563 7.21367 21.1469 7.00586C20.6055 5.86836 19.4625 5.21211 17.9859 5.21211C15.7164 5.21211 14.2672 6.74883 14.2672 9.2918C14.2672 11.8402 15.6891 13.3715 18.0297 13.3715Z" fill="white"/>
</svg>
