<svg width="29" height="24" viewBox="0 0 29 24" fill="none" xmlns="http://www.w3.org/2000/svg">
<path d="M28.2166 7.88139L23.5832 0.437086C23.4139 0.165264 23.1165 0 22.7964 0H5.56025C5.24024 0 4.94278 0.165264 4.77347 0.437086L0.140095 7.88139C-0.0823252 8.23878 -0.0363016 8.7009 0.252523 9.007L13.504 23.0613C13.6791 23.2469 13.9231 23.3522 14.1783 23.3522C14.4334 23.3522 14.6775 23.2469 14.8526 23.061L28.1041 9.007C28.3926 8.70057 28.439 8.23878 28.2166 7.88139Z" fill="#2E5F79"/>
<path d="M14.5702 13.4015C16.0822 13.4015 17.2729 12.7203 17.7714 11.6126C17.8544 11.4187 17.8987 11.2415 17.8987 11.0532C17.8987 10.6101 17.5886 10.3111 17.1178 10.3111C16.7634 10.3111 16.5529 10.4606 16.3812 10.8372C16.0212 11.6403 15.3899 12.0224 14.548 12.0224C13.2687 12.0224 12.4656 10.9701 12.4656 9.2643C12.4656 7.58063 13.2797 6.5228 14.5425 6.5228C15.34 6.5228 15.9935 6.93264 16.3591 7.74678C16.5418 8.13447 16.78 8.30062 17.1566 8.30062C17.5997 8.30062 17.8932 8.01816 17.8932 7.58063C17.8932 7.38125 17.8378 7.16525 17.7271 6.95479C17.1788 5.80281 16.0212 5.1382 14.5259 5.1382C12.2274 5.1382 10.7598 6.69449 10.7598 9.26984C10.7598 11.8507 12.1997 13.4015 14.5702 13.4015Z" fill="white"/>
</svg>
