<svg width="21" height="21" viewBox="0 0 21 21" fill="none" xmlns="http://www.w3.org/2000/svg">
<path fill-rule="evenodd" clip-rule="evenodd" d="M3 0C1.34315 0 0 1.34315 0 3V18C0 19.6569 1.34315 21 3 21H18C19.6569 21 21 19.6569 21 18V3C21 1.34315 19.6569 0 18 0H3ZM14.96 13.7222C15.1309 13.3218 15.2163 12.9507 15.2163 12.6089C15.2163 12.3403 15.1235 12.1157 14.938 11.9351C14.7524 11.7544 14.5303 11.6641 14.2715 11.6641C13.9688 11.6641 13.749 11.7544 13.6123 11.9351C13.4756 12.1108 13.3608 12.3403 13.2681 12.6235C13.0483 13.2241 12.7212 13.6807 12.2866 13.9932C11.8569 14.3008 11.3296 14.4546 10.7046 14.4546C10.1284 14.4546 9.62549 14.3179 9.1958 14.0444C8.76611 13.771 8.43408 13.3584 8.19971 12.8066C7.96533 12.25 7.84814 11.5542 7.84814 10.7192C7.84814 9.46924 8.11182 8.50488 8.63916 7.82617C9.17139 7.14746 9.88428 6.80811 10.7778 6.80811C11.3394 6.80811 11.8105 6.93994 12.1914 7.20361C12.5771 7.46729 12.9116 7.86523 13.1948 8.39746C13.3657 8.71973 13.5195 8.94678 13.6562 9.07861C13.7979 9.21045 14.0078 9.27637 14.2861 9.27637C14.5352 9.27637 14.7476 9.18115 14.9233 8.99072C15.0991 8.80029 15.187 8.58057 15.187 8.33154C15.187 7.87744 15.0063 7.39648 14.645 6.88867C14.2837 6.37598 13.7637 5.94629 13.085 5.59961C12.4062 5.25293 11.6323 5.07959 10.7632 5.07959C10.0503 5.07959 9.37891 5.20654 8.74902 5.46045C8.11914 5.71436 7.56982 6.08545 7.10107 6.57373C6.63232 7.05713 6.271 7.64062 6.01709 8.32422C5.76807 9.00781 5.64355 9.78174 5.64355 10.646C5.64355 11.1782 5.69238 11.6812 5.79004 12.1548C5.89258 12.6284 6.04395 13.0752 6.24414 13.4951C6.44434 13.9102 6.68604 14.2861 6.96924 14.623C7.28662 14.9941 7.6333 15.2944 8.00928 15.5239C8.39014 15.7485 8.8125 15.9146 9.27637 16.022C9.74023 16.1294 10.2554 16.1831 10.8218 16.1831C11.5688 16.1831 12.2231 16.0635 12.7847 15.8242C13.3462 15.585 13.8076 15.2749 14.1689 14.894C14.5303 14.5083 14.7939 14.1177 14.96 13.7222Z" fill="#9D9D9D"/>
</svg>
