<svg width="29" height="26" viewBox="0 0 29 26" fill="none" xmlns="http://www.w3.org/2000/svg">
<path d="M7.67779 22.6309H9.95887C10.1614 22.6309 10.3106 22.6842 10.4599 22.8334L12.0801 24.4429C13.4658 25.8393 14.7662 25.8287 16.1519 24.4429L17.7721 22.8334C17.932 22.6842 18.0706 22.6309 18.2838 22.6309H20.5648C22.5155 22.6309 23.4429 21.7035 23.4429 19.7422V17.4611C23.4429 17.2586 23.5068 17.1094 23.656 16.9601L25.2656 15.3399C26.662 13.9542 26.6513 12.6538 25.2656 11.2681L23.656 9.64788C23.4961 9.48799 23.4429 9.34942 23.4429 9.14689V6.86581C23.4429 4.9045 22.5262 3.97714 20.5648 3.97714H18.2838C18.0706 3.97714 17.9213 3.92385 17.7721 3.77462L16.1519 2.15441C14.7662 0.758043 13.4658 0.768702 12.0801 2.16507L10.4599 3.77462C10.3106 3.91319 10.1614 3.97714 9.95887 3.97714H7.67779C5.70582 3.97714 4.78913 4.88318 4.78913 6.86581V9.14689C4.78913 9.34942 4.73583 9.49865 4.5866 9.64788L2.97705 11.2681C1.58068 12.6538 1.59134 13.9542 2.97705 15.3399L4.5866 16.9601C4.73583 17.1094 4.78913 17.2586 4.78913 17.4611V19.7422C4.78913 21.7035 5.71648 22.6309 7.67779 22.6309ZM12.9328 18.559C12.5278 18.559 12.208 18.3885 11.8989 18.0047L9.28734 14.8283C9.09547 14.5831 8.99954 14.338 8.99954 14.0608C8.99954 13.5172 9.43657 13.0802 9.98019 13.0802C10.3106 13.0802 10.5665 13.1974 10.8436 13.5492L12.9008 16.15L17.3031 9.10425C17.5376 8.73118 17.8361 8.53931 18.1665 8.53931C18.6995 8.53931 19.1898 8.91239 19.1898 9.47733C19.1898 9.72249 19.0619 9.98897 18.9127 10.2235L13.9135 17.9941C13.679 18.3672 13.3379 18.559 12.9328 18.559Z" fill="#FDBD39"/>
<rect x="6.74609" y="6.5" width="14.717" height="12.7547" fill="#FDBD39"/>
<path d="M14.7279 18.3876C17.4089 18.3876 18.9437 16.7605 18.9437 14.3431V14.1981C18.9437 13.546 18.5748 13.1639 17.949 13.1639H15.6237C15.1429 13.1639 14.8267 13.434 14.8267 13.8885C14.8267 14.3431 15.1495 14.6131 15.6237 14.6131H17.0071L17.0005 14.7646C16.9609 15.9437 16.0585 16.7408 14.7608 16.7408C13.1799 16.7408 12.1786 15.4826 12.1786 13.4208C12.1786 11.3986 13.1206 10.2063 14.6884 10.2063C15.6237 10.2063 16.3154 10.6213 16.7831 11.471C17.0268 11.8729 17.3232 12.0507 17.7448 12.0507C18.2652 12.0507 18.6143 11.7016 18.6143 11.1944C18.6143 11.0033 18.5814 10.8123 18.4694 10.5818C17.9359 9.41583 16.5064 8.5595 14.6818 8.5595C11.8888 8.5595 10.1498 10.4039 10.1498 13.4472C10.1498 16.5366 11.8888 18.3876 14.7279 18.3876Z" fill="white"/>
</svg>
