<svg width="29" height="26" viewBox="0 0 29 26" fill="none" xmlns="http://www.w3.org/2000/svg">
<path d="M7.67779 22.6309H9.95887C10.1614 22.6309 10.3106 22.6842 10.4599 22.8334L12.0801 24.4429C13.4658 25.8393 14.7662 25.8287 16.1519 24.4429L17.7721 22.8334C17.932 22.6842 18.0706 22.6309 18.2838 22.6309H20.5648C22.5155 22.6309 23.4429 21.7035 23.4429 19.7422V17.4611C23.4429 17.2586 23.5068 17.1094 23.656 16.9601L25.2656 15.3399C26.662 13.9542 26.6513 12.6538 25.2656 11.2681L23.656 9.64787C23.4961 9.48799 23.4429 9.34941 23.4429 9.14689V6.8658C23.4429 4.9045 22.5262 3.97714 20.5648 3.97714H18.2838C18.0706 3.97714 17.9214 3.92385 17.7721 3.77462L16.1519 2.15441C14.7662 0.758041 13.4658 0.7687 12.0801 2.16506L10.4599 3.77462C10.3106 3.91319 10.1614 3.97714 9.95887 3.97714H7.67779C5.70582 3.97714 4.78913 4.88318 4.78913 6.8658V9.14689C4.78913 9.34941 4.73583 9.49864 4.5866 9.64787L2.97705 11.2681C1.58069 12.6538 1.59134 13.9542 2.97705 15.3399L4.5866 16.9601C4.73583 17.1094 4.78913 17.2586 4.78913 17.4611V19.7422C4.78913 21.7035 5.71648 22.6309 7.67779 22.6309ZM12.9328 18.559C12.5278 18.559 12.208 18.3885 11.8989 18.0047L9.28734 14.8283C9.09547 14.5831 8.99954 14.338 8.99954 14.0608C8.99954 13.5172 9.43657 13.0802 9.98019 13.0802C10.3106 13.0802 10.5665 13.1974 10.8436 13.5492L12.9008 16.15L17.3031 9.10425C17.5376 8.73118 17.8361 8.53931 18.1665 8.53931C18.6995 8.53931 19.1898 8.91238 19.1898 9.47733C19.1898 9.72249 19.0619 9.98897 18.9127 10.2235L13.9135 17.9941C13.679 18.3672 13.3379 18.559 12.9328 18.559Z" fill="#457E6E"/>
<rect x="6.74219" y="6.5" width="14.717" height="12.7547" fill="#457E6E"/>
<path d="M12.1838 18.3254C12.8096 18.3254 13.1785 17.9433 13.1785 17.2912V15.203H14.957C16.9595 15.203 18.3494 13.8988 18.3494 11.949C18.3494 9.99256 17.0056 8.69488 15.0558 8.69488H12.1838C11.558 8.69488 11.1891 9.07694 11.1891 9.72907V17.2912C11.1891 17.9433 11.558 18.3254 12.1838 18.3254ZM13.1785 13.6484V10.2692H14.5288C15.6684 10.2692 16.3271 10.8752 16.3271 11.9555C16.3271 13.0424 15.6618 13.6484 14.5223 13.6484H13.1785Z" fill="white"/>
</svg>
