<svg width="30" height="27" viewBox="0 0 30 27" fill="none" xmlns="http://www.w3.org/2000/svg">
<path d="M7.5389 24.861C8.06008 25.2602 8.70324 25.1271 9.45729 24.5837L15.2236 20.3477L20.9899 24.5837C21.7439 25.1271 22.3982 25.2602 22.9193 24.861C23.4294 24.4728 23.5403 23.8297 23.2409 22.9537L20.9677 16.1783L26.7894 11.9977C27.5324 11.4654 27.854 10.8777 27.6433 10.2567C27.4326 9.64685 26.8449 9.34745 25.9245 9.35853L18.7831 9.40289L16.6097 2.59424C16.3325 1.70712 15.8778 1.23029 15.2236 1.23029C14.5804 1.23029 14.1258 1.70712 13.8375 2.59424L11.664 9.40289L4.52269 9.35853C3.6023 9.34745 3.02567 9.64685 2.81498 10.2567C2.60429 10.8777 2.91478 11.4654 3.66883 11.9977L9.49056 16.1783L7.20623 22.9537C6.90682 23.8297 7.01771 24.4728 7.5389 24.861Z" fill="#C3828B"/>
<path d="M15.2949 18.4454C17.0692 18.4454 18.1584 17.5682 18.1584 16.1783C18.1584 15.099 17.5078 14.4928 15.9997 14.1922L15.2506 14.0394C14.4078 13.8718 14.0678 13.6008 14.0678 13.1621C14.0678 12.6397 14.5557 12.2947 15.29 12.2947C15.9011 12.2947 16.3595 12.5165 16.596 13.0537C16.7636 13.3593 16.9706 13.4923 17.3057 13.4923C17.6852 13.4923 17.9415 13.2508 17.9415 12.896C17.9415 12.7679 17.9218 12.6644 17.8873 12.5658C17.5719 11.6392 16.5911 11.0922 15.29 11.0922C13.708 11.0922 12.5744 11.9547 12.5744 13.2558C12.5744 14.3154 13.2693 14.9955 14.6887 15.2764L15.4428 15.4243C16.3348 15.6066 16.67 15.8728 16.67 16.341C16.67 16.8634 16.1278 17.2478 15.3294 17.2478C14.6493 17.2478 14.0924 17.0014 13.8608 16.4593C13.6833 16.1438 13.4813 16.0256 13.1757 16.0256C12.7913 16.0256 12.5202 16.2868 12.5202 16.681C12.5202 16.8141 12.5498 16.9521 12.5991 17.0803C12.8849 17.8589 13.8263 18.4454 15.2949 18.4454Z" fill="white"/>
</svg>
