<svg width="29" height="26" viewBox="0 0 29 26" fill="none" xmlns="http://www.w3.org/2000/svg">
<path d="M7.67779 22.6309H9.95887C10.1614 22.6309 10.3106 22.6842 10.4599 22.8334L12.0801 24.4429C13.4658 25.8393 14.7662 25.8287 16.1519 24.4429L17.7721 22.8334C17.932 22.6842 18.0706 22.6309 18.2838 22.6309H20.5648C22.5155 22.6309 23.4429 21.7035 23.4429 19.7422V17.4611C23.4429 17.2586 23.5068 17.1094 23.656 16.9601L25.2656 15.3399C26.662 13.9542 26.6513 12.6538 25.2656 11.2681L23.656 9.64788C23.4961 9.48799 23.4429 9.34942 23.4429 9.14689V6.86581C23.4429 4.9045 22.5262 3.97714 20.5648 3.97714H18.2838C18.0706 3.97714 17.9213 3.92385 17.7721 3.77462L16.1519 2.15441C14.7662 0.758043 13.4658 0.768702 12.0801 2.16507L10.4599 3.77462C10.3106 3.91319 10.1614 3.97714 9.95887 3.97714H7.67779C5.70582 3.97714 4.78913 4.88318 4.78913 6.86581V9.14689C4.78913 9.34942 4.73583 9.49865 4.5866 9.64788L2.97705 11.2681C1.58068 12.6538 1.59134 13.9542 2.97705 15.3399L4.5866 16.9601C4.73583 17.1094 4.78913 17.2586 4.78913 17.4611V19.7422C4.78913 21.7035 5.71648 22.6309 7.67779 22.6309ZM12.9328 18.559C12.5278 18.559 12.208 18.3885 11.8989 18.0047L9.28734 14.8283C9.09547 14.5831 8.99954 14.338 8.99954 14.0608C8.99954 13.5172 9.43657 13.0802 9.98019 13.0802C10.3106 13.0802 10.5665 13.1974 10.8436 13.5492L12.9008 16.15L17.3031 9.10425C17.5376 8.73118 17.8361 8.53931 18.1665 8.53931C18.6995 8.53931 19.1898 8.91239 19.1898 9.47733C19.1898 9.72249 19.0619 9.98897 18.9127 10.2235L13.9135 17.9941C13.679 18.3672 13.3379 18.559 12.9328 18.559Z" fill="#DF814C"/>
<rect x="6.74219" y="6.5" width="14.717" height="12.7547" fill="#DF814C"/>
<path d="M13.689 18.3583C16.0603 18.3583 17.5161 17.1858 17.5161 15.3282C17.5161 13.8856 16.6466 13.0754 14.6309 12.6735L13.6297 12.4693C12.5033 12.2454 12.0487 11.8831 12.0487 11.2968C12.0487 10.5986 12.7009 10.1375 13.6824 10.1375C14.4992 10.1375 15.1118 10.4339 15.428 11.1519C15.6519 11.5603 15.9286 11.7382 16.3765 11.7382C16.8837 11.7382 17.2263 11.4154 17.2263 10.9411C17.2263 10.7698 17.1999 10.6315 17.1538 10.4998C16.7322 9.26138 15.4214 8.5302 13.6824 8.5302C11.5679 8.5302 10.0528 9.68296 10.0528 11.422C10.0528 12.8382 10.9816 13.7473 12.8787 14.1227L13.8866 14.3203C15.0789 14.5641 15.5268 14.9198 15.5268 15.5456C15.5268 16.2438 14.8022 16.7576 13.7351 16.7576C12.826 16.7576 12.0817 16.4282 11.7721 15.7037C11.5349 15.2821 11.2649 15.124 10.8565 15.124C10.3427 15.124 9.98037 15.4731 9.98037 16.0001C9.98037 16.1779 10.0199 16.3624 10.0858 16.5336C10.4678 17.5744 11.726 18.3583 13.689 18.3583Z" fill="white"/>
</svg>
