<svg width="29" height="27" viewBox="0 0 29 27" fill="none" xmlns="http://www.w3.org/2000/svg">
<path d="M6.97551 24.0602C7.48745 24.4524 8.11921 24.3217 8.8599 23.7879L14.524 19.627L20.188 23.7879C20.9287 24.3217 21.5714 24.4524 22.0833 24.0602C22.5844 23.679 22.6933 23.0473 22.3992 22.1867L20.1662 15.5315L25.8848 11.425C26.6146 10.9022 26.9304 10.3249 26.7235 9.71492C26.5165 9.11583 25.9392 8.82174 25.0352 8.83263L18.0204 8.8762L15.8855 2.18825C15.6132 1.31685 15.1666 0.84848 14.524 0.84848C13.8922 0.84848 13.4456 1.31685 13.1624 2.18825L11.0275 8.8762L4.01277 8.83263C3.10869 8.82174 2.54229 9.11583 2.33533 9.71492C2.12838 10.3249 2.43336 10.9022 3.17405 11.425L8.89257 15.5315L6.64873 22.1867C6.35464 23.0473 6.46356 23.679 6.97551 24.0602Z" fill="#B39CB3"/>
</svg>
